/* XPM */
static char *a60f70f0e09c4c5df1b39c9d82ea945bQjCKjoHPHVOG8iTj[] = {
/* columns rows colors chars-per-pixel */
"64 63 256 2 ",
"   c black",
".  c #0000A8",
"X  c #00A800",
"o  c #00A8A8",
"O  c #A80000",
"+  c #A800A8",
"@  c #A85400",
"#  c gray66",
"$  c gray33",
"%  c #5454FC",
"&  c #54FC54",
"*  c #54FCFC",
"=  c #FC5454",
"-  c #FC54FC",
";  c #FCFC54",
":  c gray99",
">  c #ECECEC",
",  c gainsboro",
"<  c #D0D0D0",
"1  c #C0C0C0",
"2  c #B4B4B4",
"3  c gray66",
"4  c #989898",
"5  c gray55",
"6  c #7C7C7C",
"7  c gray44",
"8  c #646464",
"9  c gray33",
"0  c #484848",
"q  c gray22",
"w  c #2C2C2C",
"e  c #202020",
"r  c #FC0000",
"t  c #EC0000",
"y  c #E00000",
"u  c #D40000",
"i  c #C80000",
"p  c #BC0000",
"a  c #B00000",
"s  c #A40000",
"d  c #980000",
"f  c #880000",
"g  c #7C0000",
"h  c #700000",
"j  c #640000",
"k  c #580000",
"l  c #4C0000",
"z  c #400000",
"x  c #FCD8D8",
"c  c #FCB8B8",
"v  c #FC9C9C",
"b  c #FC7C7C",
"n  c #FC5C5C",
"m  c #FC4040",
"M  c #FC2020",
"N  c #FC0000",
"B  c #FCA85C",
"V  c #FC9840",
"C  c #FC8820",
"Z  c #FC7800",
"A  c #E46C00",
"S  c #CC6000",
"D  c #B45400",
"F  c #9C4C00",
"G  c #FCFCD8",
"H  c #FCFCB8",
"J  c #FCFC9C",
"K  c #FCFC7C",
"L  c #FCF85C",
"P  c #FCF440",
"I  c #FCF420",
"U  c #FCF400",
"Y  c #E4D800",
"T  c #CCC400",
"R  c #B4AC00",
"E  c #9C9C00",
"W  c #848400",
"Q  c #706C00",
"!  c #585400",
"~  c #404000",
"^  c #D0FC5C",
"/  c #C4FC40",
"(  c #B4FC20",
")  c #A0FC00",
"_  c #90E400",
"`  c #80CC00",
"'  c #74B400",
"]  c #609C00",
"[  c #D8FCD8",
"{  c #BCFCB8",
"}  c #9CFC9C",
"|  c #80FC7C",
" . c #60FC5C",
".. c #40FC40",
"X. c #20FC20",
"o. c #00FC00",
"O. c #00FC00",
"+. c #00EC00",
"@. c #00E000",
"#. c #00D400",
"$. c #04C800",
"%. c #04BC00",
"&. c #04B000",
"*. c #04A400",
"=. c #049800",
"-. c #048800",
";. c #047C00",
":. c #047000",
">. c #046400",
",. c #045800",
"<. c #044C00",
"1. c #044000",
"2. c #D8FCFC",
"3. c #B8FCFC",
"4. c #9CFCFC",
"5. c #7CFCF8",
"6. c #5CFCFC",
"7. c #40FCFC",
"8. c #20FCFC",
"9. c #00FCFC",
"0. c #00E4E4",
"q. c #00CCCC",
"w. c #00B4B4",
"e. c #009C9C",
"r. c #008484",
"t. c #007070",
"y. c #005858",
"u. c #004040",
"i. c #5CBCFC",
"p. c #40B0FC",
"a. c #20A8FC",
"s. c #009CFC",
"d. c #008CE4",
"f. c #007CCC",
"g. c #006CB4",
"h. c #005C9C",
"j. c #D8D8FC",
"k. c #B8BCFC",
"l. c #9C9CFC",
"z. c #7C80FC",
"x. c #5C60FC",
"c. c #4040FC",
"v. c #2024FC",
"b. c #0004FC",
"n. c #0000FC",
"m. c #0000EC",
"M. c #0000E0",
"N. c #0000D4",
"B. c #0000C8",
"V. c #0000BC",
"C. c #0000B0",
"Z. c #0000A4",
"A. c #000098",
"S. c #000088",
"D. c #00007C",
"F. c #000070",
"G. c #000064",
"H. c #000058",
"J. c #00004C",
"K. c #000040",
"L. c #282828",
"P. c #FCE034",
"I. c #FCD424",
"U. c #FCCC18",
"Y. c #FCC008",
"T. c #FCB400",
"R. c #B420FC",
"E. c #A800FC",
"W. c #9800E4",
"Q. c #8000CC",
"!. c #7400B4",
"~. c #60009C",
"^. c #500084",
"/. c #440070",
"(. c #340058",
"). c #280040",
"_. c #FCD8FC",
"`. c #FCB8FC",
"'. c #FC9CFC",
"]. c #FC7CFC",
"[. c #FC5CFC",
"{. c #FC40FC",
"}. c #FC20FC",
"|. c #FC00FC",
" X c #E000E4",
".X c #C800CC",
"XX c #B400B4",
"oX c #9C009C",
"OX c #840084",
"+X c #6C0070",
"@X c #580058",
"#X c #400040",
"$X c #FCE8DC",
"%X c #FCE0D0",
"&X c #FCD8C4",
"*X c #FCD4BC",
"=X c #FCCCB0",
"-X c #FCC4A4",
";X c #FCBC9C",
":X c #FCB890",
">X c #FCB080",
",X c #FCA470",
"<X c #FC9C60",
"1X c #F0945C",
"2X c #E88C58",
"3X c #DC8854",
"4X c #D08050",
"5X c #C87C4C",
"6X c #BC7848",
"7X c #B47044",
"8X c #A86840",
"9X c #A0643C",
"0X c #9C6038",
"qX c #905C34",
"wX c #885830",
"eX c #80502C",
"rX c #744C28",
"tX c #6C4824",
"yX c #5C4020",
"uX c #543C1C",
"iX c #483818",
"pX c #403018",
"aX c #382C14",
"sX c #28200C",
"dX c #600064",
"fX c #006464",
"gX c #006060",
"hX c #00001C",
"jX c #00002C",
"kX c #302410",
"lX c #480048",
"zX c #500050",
"xX c #000034",
"cX c gray11",
"vX c #4C4C4C",
"bX c gray36",
"nX c gray25",
"mX c gray19",
"MX c #343434",
"NX c #D8F4F4",
"BX c #B8E8E8",
"VX c #9CDCDC",
"CX c #74C8C8",
"ZX c #48C0C0",
"AX c #20B4B4",
"SX c #20B0B0",
"DX c #00A4A4",
"FX c #009898",
"GX c #008C8C",
"HX c #008484",
"JX c #007C7C",
"KX c #007878",
"LX c #007474",
"PX c #007070",
"IX c #006C6C",
"UX c #980088",
/* pixels */
"S.. B.A.A.B.V.. M.C.A.C.. A.L.w w A.B.. C.. . . C.. Z.V.A.A.A.A.C.C.S.C.A.A.A.A.V.B.A.A.A.C.L.w w A.A.A.C.C.A.A.V.D.A.A.C.V.V.B.",
"V.V.A.V.V.A.V.A.B.A.B.C.A.A.e w w B.V.A.Z.V.. . C.A.B.C.. A.B.A.. A.Z.B.C.C.A.V.B.A.. C.N.. e w w S.A.C.A.C.A.C.A.V.A.S.V.A.Z.A.",
"B.A.V.. A.. V.m.A.C.B.. V.A.e w w V.A.A.C.A.. . C.C.A.C.B.B.B.A.. V.C.A.A.B.A.V.V.V.V.A.C.. e w w C.A.C.S.C.A.C.V.C.V.B.A.V.C.M.",
"N.A.A.. A.B.V.C.A.. V.V.A.Z.e w w C.C.V.C.C.B.C.. C.C.. . A.A.B.B.C.V.A.S.A.A.C.A.. A.B.C.A.e w w A.. S.B.S.S.B.A.A.V.V.A.A.A.. ",
"A.A.A.A.Z.V.A.A.. A.V.A.B.A.e w w V.V.A.C.C.A.A.V.A.V.N.. B.V.A.C.A.C.A.A.S.C.A.A.A.. A.C.A.e w w A.A.C.A.A.A.A.V.C.V.V.C.V.V.V.",
"B.B.C.N.C.. V.. C.. V.N.V.. e w w N.B.C.V.B.B.V.. V.V.A.A.B.A.V.. S.V.. . A.A.. A.. S.. C.A.e w w A.A.A.B.A.V.. B.N.M.V.N.v.V.N.",
"V.V.. A.M.. V.C.A.B.A.A.B.. e w w A.C.V.V.V.V.V.C.A.. B.C.A.D.. S.A.A.. S.A.. A.. . A.A.A.A.e w w V.C.V.V.V.A.B.N.N.. M.M.A.V.N.",
". A.C.C.V.V.A.V.V.. A.V.B.. e w w C.V.B.. . N.N.C.C.N.D.A.V.D.A.A.C.A.C.V.A.A.A.A.C.. S.S.A.e w w C.V.B.N.N.M.C.A.A.M.N.C.A.V.M.",
"cXcXcXcXcXcXcXcXcXcXcXcXcXcXcXw w cXcXcXcXcXcXcXcXcXcXcXcXcXcXcXcXcXcXcXcXcXcXcXcXcXcXcXcXcXcXw w cXcXcXcXcXcXcXcXcXcXcXcXcXcXcX",
"L.L.L.L.L.L.L.L.L.L.L.L.L.L.L.w w L.L.L.L.L.L.L.L.L.L.L.L.L.L.L.L.L.L.L.L.L.L.L.L.L.L.L.L.L.L.w L.L.L.L.L.L.L.L.L.L.L.L.L.L.L.L.",
"w D.D.A.. S.A.A.V.B.V.A.A.A.A.V.A.A.C.S.A.A.. C.S.A.B.C.A.C.L.w w . V.V.. N.V.C.N.V.V.N.V.N.N.V.A.V.V.B.. B.C.A.V.A.C.C.C.B.L.w ",
"w C.A.A.A.A.A.A.A.A.C.A.V.A.A.A.A.A.A.. . A.A.A.B.A.C.C.A.V.e w w A.V.V.M.v.N.N.. M.. A.. B.. m.A.B.C.N.C.A.M.V.V.V.C.V.V.A.e w ",
"w A.. A.A.A.S.V.V.A.V.A.V.C.A.V.A.. . . . C.A.C.V.. C.C.N.M.e w w B.C.v.B.N.C.. A.A.N.M.. C.. C.V.V.A.C.N.V.C.C.C.A.V.C.A.V.e w ",
"w N.V.C.B.A.V.V.C.. V.C.V.A.A.C.C.C.V.A.C.C.V.A.A.V.. B.V.V.e w w B.B.V.. . . C.A.V.V.. C.C.V.B.V.V.A.V.. A.A.A.. B.B.B.V.A.e w ",
"w v.N.M.M.V.. M.M.M.B.M.M.V.B.M.N.B.V.. A.C.V.N.. C.B.M.v.V.e w w V.V.N.A.C.C.N.C.A.V.A.V.C.V.C.V.V.V.V.. V.V.V.B.C.B.C.A.A.e w ",
"w B.M.B.V.M.M.V.N.M.V.N.A.. A.M.V.N.M.M.M.v.C.v.B.v.N.C.A.M.e w w V.N.C.V.A.C.A.A.A.A.C.V.A.A.V.V.A.V.A.V.N.V.M.V.V.. N.V.C.e w ",
"w N.V.M.M.N.V.M.V.N.C.B.N.M.N.B.C.A.A.. V.v.B.M.B.v.N.V.A.V.e w w B.V.N.C.M.A.V.N.C.B.. A.. M.C.V.N.V.B.M.M.C.v.. v.V.v.B.v.e w ",
"w N.M.V.N.B.B.B.B.C.C.. M.V.. M.V.B.C.. B.m.B.V.M.M.V.C.N.N.e w w . . M.M.B.V.A.B.A.A.B.A.N.B.M.v.v.v.M.M.M.B.v.v.M.V.v.v.M.e w ",
"w N.N.N.B.V.C.B.. N.M.B.V.A.M.V.B.C.N.V.M.V.N.M.C.A.N.v.V.M.e w w . A.N.C.. C.. N.V.M.V.N.C.V.N.N.B.B.v.N.v.N.V.V.N.C.V.N.. e w ",
"w cXcXcXcXcXcXcXcXcXcXcXcXcXcXcXcXcXcXcXcXcXcXcXcXcXcXcXcXcXcXw w cXcXcXcXcXcXcXcXcXcXcXcXcXcXcXcXcXcXcXcXcXcXcXcXcXcXcXcXcXcXw ",
"w L.L.L.L.L.L.L.L.L.L.L.L.L.L.L.L.L.L.L.L.L.L.L.L.L.L.L.L.L.L.w w L.L.L.L.L.L.L.L.L.L.L.L.L.L.L.L.L.L.L.L.L.L.L.L.L.L.L.L.L.L.w ",
"N.B.M.M.. C.C.B.M.N.N.A.V.N.L.w w B.C.A.. M.C.V.V.M.B.V.N.M.V.M.N.V.B.V.V.M.V.. V.M.v.A.V.C.L.w w V.A.B.A.V.A.M.B.V.. V.C.B.V.C.",
"N.M.V.v.N.v.B.m.N.V.V.V.C.M.e w w V.. B.C.V.. m.B.v.B.M.V.V.B.C.M.M.N.M.. V.A.M.C.M.N.B.. C.e w w C.A.A.V.C.N.C.B.V.A.C.B.V.B.N.",
"v.. A.N.V.M.M.M.V.N.N.M.M.B.e w w V.V.M.v.v.v.M.M.C.C.B.N.N.M.V.C.V.V.A.A.V.B.A.. N.C.A.V.C.e w w V.A.C.. V.V.M.V.. V.V.V.C.B.. ",
"N.N.N.N.B.v.M.M.M.N.. V.V.. e w w N.M.M.. B.V.C.V.B.. V.V.B.B.M.C.V.V.B.B.B.C.V.A.V.A.A.A.V.e w w V.A.M.M.V.C.B.B.C.. C.V.M.. V.",
"M.v.. C.B.v.v.V.V.V.B.V.V.m.e w w V.V.A.B.B.B.V.M.C.V.B.C.N.M.V.. B.B.A.N.A.N.N.. C.V.V.V.A.e w w V.B.M.C.B.B.V.. . C.V.A.. V.A.",
"V.V.N.B.N.M.B.A.A.A.A.B.V.V.e w w A.N.C.B.C.V.A.V.V.C.M.N.C.V.N.V.V.B.V.N.V.C.B.C.B.A.V.B.. e w w A.. B.. A.A.A.C.A.C.A.B.A.A.S.",
". M.A.B.N.M.A.A.A.B.. C.V.B.e w w V.B.N.C.B.B.V.C.M.. M.C.B.A.B.. B.V.A.V.C.C.V.A.. V.B.. V.e w w A.. B.. A.B.A.S.C.A.. S.V.D.C.",
"A.C.V.B.V.V.. . V.A.V.. B.V.e w w N.. V.C.A.B.V.N.C.A.A.. V.A.A.V.V.A.V.B.N.A.. N.N.C.M.V.V.e w w A.A.V.C.A.A.A.A.A.C.. A.A.A.V.",
"B.N.A.A.C.B.V.V.N.A.B.A.A.V.e w w B.V.V.V.A.N.A.C.C.N.N.V.A.C.B.C.C.N.C.N.V.B.m.M.M.N.A.M.C.e w w A.. V.. V.V.. C.. A.. A.C.Z.A.",
"cXcXcXcXcXcXcXcXcXcXcXcXcXcXcXw w cXcXcXcXcXcXcXcXcXcXcXcXcXcXcXcXcXcXcXcXcXcXcXcXcXcXcXcXcXcXw w cXcXcXcXcXcXcXcXcXcXcXcXcXcXcX",
"L.L.L.L.L.L.L.L.L.L.L.L.L.L.L.w w L.L.L.L.L.L.L.L.L.L.L.L.L.L.L.L.L.L.L.L.L.L.L.L.L.L.L.L.L.L.w w L.L.L.L.L.L.L.L.L.L.L.L.L.L.L.",
"w N.V.V.V.V.M.V.V.C.V.N.C.. M.A.m.V.V.N.M.B.M.M.A.. N.V.A.B.L.w w V.A.A.V.A.A.. C.. V.V.B.S.S.A.A.V.V.. C.B.M.. V.. C.. N.B.L.w ",
"w B.B.V.B.N.V.B.M.A.V.. M.M.V.B.B.. N.B.B.A.M.V.N.V.V.. A.V.e w w N.V.. V.A.A.B.A.A.A.A.A.D.D.A.A.C.A.A.B.V.. B.C.C.B.. B.C.e w ",
"w B.B.A.B.N.B.m.B.N.M.M.V.V.V.N.V.B.A.B.N.N.V.B.C.B.V.B.V.V.e w w C.B.V.C.A.A.V.A.S.C.. . A.A.A.C.A.A.V.Z.M.. C.C.A.C.M.V.V.e w ",
"w N.C.B.V.A.B.C.B.V.B.. V.B.C.V.N.N.V.V.V.V.V.N.C.A.V.C.V.C.e w w . C.C.C.. V.C.A.A.A.A.A.A.C.M.A.B.V.V.A.C.. B.M.B.. V.C.. e w ",
"w C.V.C.. V.B.V.V.A.N.B.. B.N.m.M.N.N.C.N.A.B.. A.A.A.N.A.Z.e w w S.A.A.A.A.A.V.C.B.B.. C.. A.A.C.V.C.B.A.A.A.C.V.C.C.. A.A.e w ",
"w C.A.. . C.C.V.. C.M.N.N.M.C.B.V.B.C.. V.C.C.. A.N.. . S.A.e w w A.A.. A.Z.Z.A.A.V.N.C.B.N.A.C.V.C.V.C.V.M.A.V.V.N.V.C.A.C.e w ",
"w A.C.B.A.B.V.V.B.N.. B.. V.V.A.A.V.C.V.V.C.C.V.. C.A.A.A.C.e w w C.V.A.Z.. B.N.C.B.V.C.M.C.N.N.. N.C.. C.N.V.V.B.A.V.N.. V.e w ",
"w N.V.A.V.N.V.m.N.M.V.V.A.B.. C.V.N.A.N.C.S.. A.S.A.A.C.A.A.e w w A.C.V.. B.C.A.N.V.C.V.C.B.V.M.C.A.V.B.V.V.B.A.C.M.V.A.N.V.e w ",
"w V.V.N.M.V.V.M.. C.. . C.A.B.C.A.V.A.A.V.. V.S.C.A.A.A.V.N.e w w . N.V.C.V.V.V.V.C.V.. M.B.V.C.. . M.C.V.A.B.. C.B.V.V.. V.e w ",
"w cXcXcXcXcXcXcXcXcXcXcXcXcXcXcXcXcXcXcXcXcXcXcXcXcXcXcXcXcXcXw w cXcXcXcXcXcXcXcXcXcXcXcXcXcXcXcXcXcXcXcXcXcXcXcXcXcXcXcXcXcXw ",
"w L.L.L.L.L.L.L.L.L.L.L.L.L.L.L.L.L.L.L.L.L.L.L.L.L.L.L.L.L.L.w w L.L.L.L.L.L.L.L.L.L.L.L.L.L.L.L.L.L.L.L.L.L.L.L.L.L.L.L.L.L.w ",
"A.A.S.. . S.C.A.. S.S.S.S.V.L.w w S.A.V.S.A.D.V.B.A.V.B.C.. M.M.M.C.V.V.. A.V.A.V.A.V.B.V.. L.w w B.A.C.A.C.B.V.M.A.A.C.A.C.N.m.",
"A.V.A.M.A.C.. A.A.C.A.S.A.D.e w w C.. A.C.B.M.V.V.V.A.M.v.C.M.N.M.B.A.V.V.A.C.A.A.A.V.M.. B.e w w . A.N.V.A.A.C.C.B.A.V.C.C.C.M.",
"V.A.A.A.V.N.S.. S.S.A.C.S.A.e w w A.A.A.V.V.A.M.B.V.V.V.C.. A.V.B.A.. C.A.A.N.A.N.M.A.M.C.. e w w A.B.B.B.V.B.V.N.M.. A.V.A.B.A.",
"B.N.C.v.N.V.A.. B.. C.A.C.A.e w w C.A.V.M.C.N.N.V.M.v.C.v.N.. C.M.V.A.. A.C.C.Z.V.A.A.V.A.V.e w w . A.A.. . B.B.M.B.V.V.v.M.V.B.",
"B.N.M.M.M.V.M.v.v.B.M.B.B.v.e w w V.v.B.N.B.v.M.B.V.B.B.V.V.B.A.A.A.. A.V.A.A.V.. A.A.. V.V.e w w A.C.A.B.B.v.M.. V.N.m.m.C.V.m.",
"N.M.V.N.V.B.B.N.C.M.V.V.C.B.e w w M.N.v.B.M.B.M.v.B.V.C.B.V.A.M.. A.D.A.A.C.S.A.S.A.C.V.V.C.e w w A.N.M.v.. C.B.M.A.A.V.N.. B.M.",
"V.B.C.V.V.m.v.B.C.B.V.B.M.. e w w V.M.B.N.M.V.V.A.C.V.. B.A.A.S.A.V.D.A.A.. A.V.V.M.M.C.v.v.e w w A.C.A.V.A.A.V.V.C.A.A.. A.V.B.",
"V.C.A.B.N.C.V.V.B.M.B.v.C.C.e w w V.B.B.C.C.. V.V.A.A.. D.. A.A.A.C.A.A.A.C.A.M.N.V.M.C.A.B.e w w A.A.. C.B.A.V.V.A.V.. V.M.C.C.",
"C.A.C.N.. V.. N.V.V.A.C.V.A.e w w . V.. V.A.. C.A.A.A.B.V.A.A.C.. A.V.C.C.B.N.. A.B.A.B.C.A.e w w B.V.B.D.C.S.A.A.. C.A.V.C.C.C.",
"cXcXcXcXcXcXcXcXcXcXcXcXcXcXcXw w cXcXcXcXcXcXcXcXcXcXcXcXcXcXcXcXcXcXcXcXcXcXcXcXcXcXcXcXcXcXw w cXcXcXcXcXcXcXcXcXcXcXcXcXcXcX",
"L.L.L.L.L.L.L.L.L.L.L.L.L.L.L.w w L.L.L.L.L.L.L.L.L.L.L.L.L.L.L.L.L.L.L.L.L.L.L.L.L.L.L.L.L.L.w w L.L.L.L.L.L.L.L.L.L.L.L.L.L.L.",
"w V.B.V.. V.V.A.A.C.V.C.V.C.V.V.A.V.S.C.C.A.A.C.A.A.C.. V.. L.w w M.V.V.A.C.. B.. N.C.A.C.B.C.C.C.V.C.B.N.A.A.V.V.A.N.A.V.A.L.w ",
"w A.C.S.. A.A.V.S.C.B.A.A.A.A.A.V.A.A.A.A.V.A.B.. C.. A.A.C.e w w V.B.V.V.C.A.. A.A.A.. A.A.B.A.C.V.. A.A.. A.. C.A.A.C.C.A.e w ",
"w A.. A.C.A.S.B.. B.A.A.A.V.A.A.V.C.A.C.. A.. A.V.B.C.V.M.V.e w w V.A.C.C.V.V.A.S.V.A.V.B.B.. V.V.C.A.C.V.C.B.A.C.A.C.. . C.e w ",
"w A.A.V.V.C.A.D.A.A.B.M.C.Z.B.. V.C.B.C.A.B.. V.B.M.v.v.N.B.e w w . C.. . V.V.C.A.A.V.C.A.V.N.A.. Z.B.V.V.. A.A.A.. Z.. V.. e w ",
"w C.V.A.. . A.A.A.V.C.. N.C.C.C.A.V.C.B.v.M.v.M.C.M.N.V.. V.e w w . B.A.V.A.A.C.V.. A.A.A.A.A.A.A.. A.C.A.C.V.V.V.V.V.C.V.C.e w ",
"w A.. V.V.A.C.B.A.V.V.. V.. A.N.v.V.V.V.M.. N.. B.. . B.. . e w w C.A.V.C.V.. N.V.. B.M.V.V.C.A.. C.C.A.S.. B.B.. V.C.. A.C.e w ",
"w V.. . A.C.. A.A.. A.. . C.V.V.V.V.V.V.V.. N.. V.C.V.V.M.C.e w w M.A.B.V.V.V.C.C.C.. A.V.B.. A.A.V.C.V.. A.S.C.A.A.V.. A.C.e w ",
"w V.V.A.B.A.. M.C.B.A.C.V.. V.B.. B.A.V.V.B.N.B.V.A.N.N.. . e w w V.V.C.. V.C.C.C.C.C.B.. V.A.C.C.B.B.C.A.A.A.A.A.A.C.B.A.N.e w ",
"w cXcXcXcXcXcXcXcXcXcXcXcXcXcXcXcXcXcXcXcXcXcXcXcXcXcXcXcXcXcXw w cXcXcXcXcXcXcXcXcXcXcXcXcXcXcXcXcXcXcXcXcXcXcXcXcXcXcXcXcXcXw "
};
